<mxfile host="65bd71144e">
    <diagram id="qtP8F5DnXkwx_0KtTDRE" name="Page-1">
        <mxGraphModel dx="1323" dy="607" grid="1" gridSize="10" guides="1" tooltips="1" connect="1" arrows="1" fold="1" page="1" pageScale="1" pageWidth="827" pageHeight="1169" math="0" shadow="0">
            <root>
                <mxCell id="0"/>
                <mxCell id="1" parent="0"/>
                <mxCell id="2" value="" style="edgeStyle=none;html=1;exitX=0.5;exitY=1;exitDx=0;exitDy=0;" parent="1" source="20" target="5" edge="1">
                    <mxGeometry relative="1" as="geometry">
                        <mxPoint x="438.99999999999955" y="230" as="sourcePoint"/>
                    </mxGeometry>
                </mxCell>
                <mxCell id="22" style="edgeStyle=none;html=1;exitX=0.528;exitY=1.019;exitDx=0;exitDy=0;entryX=0.5;entryY=0;entryDx=0;entryDy=0;fontSize=14;exitPerimeter=0;" parent="1" source="3" target="20" edge="1">
                    <mxGeometry relative="1" as="geometry"/>
                </mxCell>
                <mxCell id="3" value="Start" style="ellipse;whiteSpace=wrap;html=1;fontFamily=Fira Code;fontSize=27;" parent="1" vertex="1">
                    <mxGeometry x="210" y="10" width="440" height="80" as="geometry"/>
                </mxCell>
                <mxCell id="4" value="" style="edgeStyle=none;html=1;" parent="1" source="5" target="9" edge="1">
                    <mxGeometry relative="1" as="geometry"/>
                </mxCell>
                <mxCell id="5" value="newLenght = 0&lt;br&gt;k = 0&lt;br&gt;i = 0&lt;br&gt;index = 0&lt;br&gt;limit = 3&lt;br&gt;outputArray[newLenght]&amp;nbsp;" style="whiteSpace=wrap;html=1;fontSize=27;fontFamily=Fira Code;" parent="1" vertex="1">
                    <mxGeometry x="218" y="280" width="438" height="190" as="geometry"/>
                </mxCell>
                <mxCell id="23" style="edgeStyle=none;html=1;exitX=0.5;exitY=1;exitDx=0;exitDy=0;fontSize=14;entryX=0.5;entryY=0;entryDx=0;entryDy=0;" parent="1" source="9" target="24" edge="1">
                    <mxGeometry relative="1" as="geometry">
                        <mxPoint x="438" y="690" as="targetPoint"/>
                    </mxGeometry>
                </mxCell>
                <mxCell id="36" style="edgeStyle=none;html=1;exitX=1;exitY=0.5;exitDx=0;exitDy=0;fontSize=30;" parent="1" source="9" edge="1">
                    <mxGeometry relative="1" as="geometry">
                        <mxPoint x="440" y="980" as="targetPoint"/>
                        <Array as="points">
                            <mxPoint x="800" y="565"/>
                            <mxPoint x="800" y="940"/>
                            <mxPoint x="440" y="940"/>
                        </Array>
                    </mxGeometry>
                </mxCell>
                <mxCell id="9" value="k &amp;lt;&amp;nbsp;&lt;span style=&quot;font-family: &amp;#34;fira code&amp;#34;&quot;&gt;elementsC&lt;/span&gt;&lt;span style=&quot;font-family: &amp;#34;fira code&amp;#34;&quot;&gt;ount&lt;/span&gt;" style="rhombus;whiteSpace=wrap;html=1;fontSize=27;fontFamily=Fira Code;" parent="1" vertex="1">
                    <mxGeometry x="220" y="500" width="434" height="130" as="geometry"/>
                </mxCell>
                <mxCell id="10" value="" style="edgeStyle=none;html=1;" parent="1" edge="1">
                    <mxGeometry relative="1" as="geometry">
                        <mxPoint x="431" y="1319.1399999999999" as="sourcePoint"/>
                        <mxPoint x="431" y="1361" as="targetPoint"/>
                    </mxGeometry>
                </mxCell>
                <mxCell id="11" value="&lt;font style=&quot;font-size: 26px&quot;&gt;&amp;nbsp;TRUE&amp;nbsp;&amp;nbsp;&lt;/font&gt;" style="edgeLabel;html=1;align=center;verticalAlign=middle;resizable=0;points=[];fontSize=11;" parent="10" vertex="1" connectable="0">
                    <mxGeometry x="-0.3374" y="1" relative="1" as="geometry">
                        <mxPoint x="68" y="8" as="offset"/>
                    </mxGeometry>
                </mxCell>
                <mxCell id="47" style="edgeStyle=none;html=1;exitX=1;exitY=0.5;exitDx=0;exitDy=0;" edge="1" parent="1" source="14">
                    <mxGeometry relative="1" as="geometry">
                        <mxPoint x="650" y="1825" as="targetPoint"/>
                        <Array as="points">
                            <mxPoint x="720" y="1245"/>
                            <mxPoint x="720" y="1825"/>
                        </Array>
                    </mxGeometry>
                </mxCell>
                <mxCell id="14" value="&lt;span&gt;inputArray[i] &amp;lt; = limit&lt;/span&gt;" style="rhombus;whiteSpace=wrap;html=1;fontSize=27;fontFamily=Fira Code;" parent="1" vertex="1">
                    <mxGeometry x="220" y="1170" width="438" height="150" as="geometry"/>
                </mxCell>
                <mxCell id="15" value="" style="edgeStyle=none;html=1;fontSize=26;" parent="1" source="16" edge="1">
                    <mxGeometry relative="1" as="geometry">
                        <mxPoint x="431" y="1641" as="targetPoint"/>
                    </mxGeometry>
                </mxCell>
                <mxCell id="52" value="" style="edgeStyle=none;html=1;" edge="1" parent="1" source="16" target="18">
                    <mxGeometry relative="1" as="geometry"/>
                </mxCell>
                <mxCell id="16" value="outputArray[index] =&amp;nbsp;&lt;br&gt;inputArray[i]&lt;br&gt;index = index + 1" style="whiteSpace=wrap;html=1;fontSize=27;fontFamily=Fira Code;" parent="1" vertex="1">
                    <mxGeometry x="210" y="1361" width="442" height="120" as="geometry"/>
                </mxCell>
                <mxCell id="45" style="edgeStyle=none;html=1;exitX=0;exitY=0.5;exitDx=0;exitDy=0;" edge="1" parent="1" source="18">
                    <mxGeometry relative="1" as="geometry">
                        <mxPoint x="435" y="960" as="targetPoint"/>
                        <Array as="points">
                            <mxPoint x="120" y="1600"/>
                            <mxPoint x="120" y="960"/>
                        </Array>
                    </mxGeometry>
                </mxCell>
                <mxCell id="51" style="edgeStyle=none;html=1;exitX=0.5;exitY=1;exitDx=0;exitDy=0;" edge="1" parent="1" source="18">
                    <mxGeometry relative="1" as="geometry">
                        <mxPoint x="435.3333333333335" y="1760" as="targetPoint"/>
                    </mxGeometry>
                </mxCell>
                <mxCell id="18" value="i = i + 1" style="whiteSpace=wrap;html=1;fontSize=27;fontFamily=Fira Code;" parent="1" vertex="1">
                    <mxGeometry x="214" y="1530.9999999999998" width="442" height="134" as="geometry"/>
                </mxCell>
                <mxCell id="19" value="End" style="ellipse;whiteSpace=wrap;html=1;fontSize=27;fontFamily=Fira Code;" parent="1" vertex="1">
                    <mxGeometry x="310" y="1919.9999999999998" width="240" height="120" as="geometry"/>
                </mxCell>
                <mxCell id="20" value="&lt;span style=&quot;font-size: 27px ; font-family: &amp;#34;fira code&amp;#34;&quot;&gt;Input elementsC&lt;/span&gt;&lt;span style=&quot;font-family: &amp;#34;fira code&amp;#34; ; font-size: 27px&quot;&gt;ount&lt;/span&gt;&lt;span style=&quot;font-family: &amp;#34;fira code&amp;#34; ; font-size: 27px&quot;&gt;&amp;nbsp;&lt;/span&gt;&lt;br style=&quot;font-family: &amp;#34;fira code&amp;#34; ; font-size: 27px&quot;&gt;&lt;span style=&quot;font-family: &amp;#34;fira code&amp;#34; ; font-size: 27px&quot;&gt;Input input&lt;/span&gt;&lt;font face=&quot;fira code&quot;&gt;&lt;span style=&quot;font-size: 27px&quot;&gt;Array[&lt;/span&gt;&lt;/font&gt;&lt;span style=&quot;font-size: 27px ; font-family: &amp;#34;fira code&amp;#34;&quot;&gt;elementsC&lt;/span&gt;&lt;span style=&quot;font-family: &amp;#34;fira code&amp;#34; ; font-size: 27px&quot;&gt;ount&lt;/span&gt;&lt;font face=&quot;fira code&quot;&gt;&lt;span style=&quot;font-size: 27px&quot;&gt;]&amp;nbsp;&lt;/span&gt;&lt;/font&gt;" style="shape=parallelogram;perimeter=parallelogramPerimeter;whiteSpace=wrap;html=1;fixedSize=1;" parent="1" vertex="1">
                    <mxGeometry x="220" y="130" width="440" height="110" as="geometry"/>
                </mxCell>
                <mxCell id="27" style="edgeStyle=none;html=1;exitX=0.5;exitY=1;exitDx=0;exitDy=0;fontSize=30;" parent="1" source="24" edge="1">
                    <mxGeometry relative="1" as="geometry">
                        <mxPoint x="440" y="820" as="targetPoint"/>
                    </mxGeometry>
                </mxCell>
                <mxCell id="33" style="edgeStyle=none;html=1;exitX=0;exitY=0.5;exitDx=0;exitDy=0;fontSize=30;" parent="1" source="24" edge="1">
                    <mxGeometry relative="1" as="geometry">
                        <mxPoint x="220.28571428571445" y="570" as="targetPoint"/>
                    </mxGeometry>
                </mxCell>
                <mxCell id="24" value="&lt;span style=&quot;font-family: &amp;#34;fira code&amp;#34; ; font-size: 27px&quot;&gt;InputArray[k] &amp;lt; = limit&lt;/span&gt;" style="rhombus;whiteSpace=wrap;html=1;fontSize=14;" parent="1" vertex="1">
                    <mxGeometry x="220" y="660" width="440" height="130" as="geometry"/>
                </mxCell>
                <mxCell id="25" value="&lt;font style=&quot;font-size: 26px&quot;&gt;&amp;nbsp;TRUE&amp;nbsp;&amp;nbsp;&lt;/font&gt;" style="edgeLabel;html=1;align=center;verticalAlign=middle;resizable=0;points=[];fontSize=11;" parent="1" vertex="1" connectable="0">
                    <mxGeometry x="510" y="1200" as="geometry">
                        <mxPoint x="1" y="-554" as="offset"/>
                    </mxGeometry>
                </mxCell>
                <mxCell id="30" style="edgeStyle=none;html=1;exitX=0;exitY=0.5;exitDx=0;exitDy=0;fontSize=30;entryX=0;entryY=0.5;entryDx=0;entryDy=0;" parent="1" source="28" target="9" edge="1">
                    <mxGeometry relative="1" as="geometry">
                        <mxPoint x="160" y="560" as="targetPoint"/>
                        <Array as="points">
                            <mxPoint x="160" y="860"/>
                            <mxPoint x="160" y="565"/>
                        </Array>
                    </mxGeometry>
                </mxCell>
                <mxCell id="28" value="newLenght&amp;nbsp;= newLenght + 1&lt;br&gt;k = k + 1" style="whiteSpace=wrap;html=1;fontSize=27;fontFamily=Fira Code;" parent="1" vertex="1">
                    <mxGeometry x="220" y="820" width="440" height="80" as="geometry"/>
                </mxCell>
                <mxCell id="31" value="&lt;font style=&quot;font-size: 26px&quot;&gt;&amp;nbsp;TRUE&amp;nbsp;&amp;nbsp;&lt;/font&gt;" style="edgeLabel;html=1;align=center;verticalAlign=middle;resizable=0;points=[];fontSize=11;" parent="1" vertex="1" connectable="0">
                    <mxGeometry x="749.9999999999998" y="799.9999999999997" as="geometry">
                        <mxPoint x="-245" y="3" as="offset"/>
                    </mxGeometry>
                </mxCell>
                <mxCell id="34" value="&amp;nbsp;FALSE&amp;nbsp;" style="edgeLabel;html=1;align=center;verticalAlign=middle;resizable=0;points=[];fontSize=26;" parent="1" vertex="1" connectable="0">
                    <mxGeometry x="100" y="840.0014601052955" as="geometry">
                        <mxPoint x="571" y="-305" as="offset"/>
                    </mxGeometry>
                </mxCell>
                <mxCell id="35" value="&amp;nbsp;FALSE&amp;nbsp;" style="edgeLabel;html=1;align=center;verticalAlign=middle;resizable=0;points=[];fontSize=26;" parent="1" vertex="1" connectable="0">
                    <mxGeometry x="120" y="860.0014601052955" as="geometry">
                        <mxPoint x="127" y="-187" as="offset"/>
                    </mxGeometry>
                </mxCell>
                <mxCell id="40" style="edgeStyle=none;html=1;exitX=0.5;exitY=1;exitDx=0;exitDy=0;entryX=0.5;entryY=0;entryDx=0;entryDy=0;fontSize=30;" parent="1" source="38" target="14" edge="1">
                    <mxGeometry relative="1" as="geometry"/>
                </mxCell>
                <mxCell id="48" style="edgeStyle=none;html=1;exitX=1;exitY=0.5;exitDx=0;exitDy=0;entryX=1;entryY=0.75;entryDx=0;entryDy=0;" edge="1" parent="1" source="38" target="42">
                    <mxGeometry relative="1" as="geometry">
                        <mxPoint x="650" y="1840" as="targetPoint"/>
                        <Array as="points">
                            <mxPoint x="790" y="1055"/>
                            <mxPoint x="790" y="1840"/>
                        </Array>
                    </mxGeometry>
                </mxCell>
                <mxCell id="38" value="&lt;span&gt;i &amp;lt; elementsCount&lt;/span&gt;" style="rhombus;whiteSpace=wrap;html=1;fontSize=27;fontFamily=Fira Code;" parent="1" vertex="1">
                    <mxGeometry x="226" y="980" width="430" height="150" as="geometry"/>
                </mxCell>
                <mxCell id="46" style="edgeStyle=none;html=1;exitX=0.5;exitY=1;exitDx=0;exitDy=0;" edge="1" parent="1" source="42">
                    <mxGeometry relative="1" as="geometry">
                        <mxPoint x="430" y="1920" as="targetPoint"/>
                    </mxGeometry>
                </mxCell>
                <mxCell id="42" value="&lt;font face=&quot;fira code&quot;&gt;&lt;span style=&quot;font-size: 27px&quot;&gt;Print outputArray&lt;/span&gt;&lt;/font&gt;" style="shape=parallelogram;perimeter=parallelogramPerimeter;whiteSpace=wrap;html=1;fixedSize=1;" vertex="1" parent="1">
                    <mxGeometry x="210" y="1760" width="440" height="110" as="geometry"/>
                </mxCell>
                <mxCell id="44" value="&lt;font style=&quot;font-size: 26px&quot;&gt;&amp;nbsp;TRUE&amp;nbsp;&amp;nbsp;&lt;/font&gt;" style="edgeLabel;html=1;align=center;verticalAlign=middle;resizable=0;points=[];fontSize=11;" vertex="1" connectable="0" parent="1">
                    <mxGeometry x="520" y="1350.4733333333334" as="geometry">
                        <mxPoint x="-21" y="-201" as="offset"/>
                    </mxGeometry>
                </mxCell>
                <mxCell id="49" value="&amp;nbsp;FALSE&amp;nbsp;" style="edgeLabel;html=1;align=center;verticalAlign=middle;resizable=0;points=[];fontSize=26;" vertex="1" connectable="0" parent="1">
                    <mxGeometry x="560" y="1400.0014601052953" as="geometry">
                        <mxPoint x="127" y="-187" as="offset"/>
                    </mxGeometry>
                </mxCell>
                <mxCell id="50" value="&amp;nbsp;FALSE&amp;nbsp;" style="edgeLabel;html=1;align=center;verticalAlign=middle;resizable=0;points=[];fontSize=26;" vertex="1" connectable="0" parent="1">
                    <mxGeometry x="550" y="1280.0014601052953" as="geometry">
                        <mxPoint x="127" y="-187" as="offset"/>
                    </mxGeometry>
                </mxCell>
            </root>
        </mxGraphModel>
    </diagram>
</mxfile>